<svg width="1206" height="477" viewBox="0 0 1206 477" fill="none" xmlns="http://www.w3.org/2000/svg">
<g opacity="0.1" clip-path="url(#clip0_1_7044)">
<path d="M23.2408 41.8196H1182.45M23.2408 65.6084H1182.45M23.2408 89.413H1182.45M23.2408 113.202H1182.45M23.2408 137.006H1182.45M23.2408 160.811H1182.45M23.2408 184.6H1182.45M23.2408 208.404H1182.45M23.2408 232.193H1182.45M23.2408 255.998H1182.45M23.2408 279.802H1182.45M23.2408 303.591H1182.45M23.2408 327.396H1182.45M23.2408 351.185H1182.45M23.2408 374.989H1182.45M23.2408 398.778H1182.45M23.2408 422.583H1182.45M23.2408 446.387H1182.45M23.2408 470.176H1182.45M23.2408 493.981H1182.45M23.2408 517.769H1182.45M23.2408 541.574H1182.45M23.2408 565.379H1182.45" stroke="url(#paint0_linear_1_7044)" stroke-width="0.628125" stroke-miterlimit="10"/>
<ellipse cx="1085.1" cy="337.353" rx="241.502" ry="230.435" fill="url(#paint1_radial_1_7044)"/>
<path opacity="0.73" d="M132.409 493.982H-71.718C-101.766 467.667 -120.6 429.883 -120.6 387.91C-120.6 308.394 -53.0236 243.935 30.3387 243.935C113.701 243.935 181.277 308.394 181.277 387.91C181.291 429.883 162.457 467.667 132.409 493.982Z" fill="url(#paint2_radial_1_7044)"/>
<path d="M535.108 399.528C637.514 399.528 720.531 320.34 720.531 222.658C720.531 124.976 637.514 45.7882 535.108 45.7882C432.701 45.7882 349.684 124.976 349.684 222.658C349.684 320.34 432.701 399.528 535.108 399.528Z" fill="url(#paint3_radial_1_7044)"/>
<path d="M535.078 355.211C611.77 355.211 673.941 295.889 673.941 222.711C673.941 149.533 611.77 90.2109 535.078 90.2109C458.385 90.2109 396.214 149.533 396.214 222.711C396.214 295.889 458.385 355.211 535.078 355.211Z" fill="url(#paint4_radial_1_7044)"/>
<path d="M535.107 272.34C682.244 272.34 801.522 212.886 801.522 139.546C801.522 66.2064 682.244 6.75269 535.107 6.75269C387.971 6.75269 268.693 66.2064 268.693 139.546C268.693 212.886 387.971 272.34 535.107 272.34Z" fill="url(#paint5_radial_1_7044)"/>
<path d="M188.523 128.233C213.531 128.233 233.804 108.889 233.804 85.0262C233.804 61.1638 213.531 41.8196 188.523 41.8196C163.514 41.8196 143.241 61.1638 143.241 85.0262C143.241 108.889 163.514 128.233 188.523 128.233Z" fill="url(#paint6_radial_1_7044)"/>
<path opacity="0.39" d="M833.391 63.4376C833.391 64.2228 834.066 64.8508 834.873 64.8508C835.696 64.8508 836.371 64.2071 836.371 63.4376C836.371 62.6525 835.696 62.0245 834.873 62.0245C834.066 62.0087 833.391 62.6525 833.391 63.4376Z" fill="white"/>
<path opacity="0.41" d="M790.212 100.574C790.212 101.186 790.722 101.673 791.365 101.673C792.007 101.673 792.517 101.186 792.517 100.574C792.517 99.9611 792.007 99.4744 791.365 99.4744C790.722 99.4744 790.212 99.9611 790.212 100.574Z" fill="white"/>
<path opacity="0.63" d="M791.364 38.2513C792.419 38.2513 793.273 37.4358 793.273 36.4299C793.273 35.4239 792.419 34.6084 791.364 34.6084C790.309 34.6084 789.454 35.4239 789.454 36.4299C789.454 37.4358 790.309 38.2513 791.364 38.2513Z" fill="white"/>
<path opacity="0.31" d="M807.514 74.0053C808.486 74.0053 809.275 73.2531 809.275 72.3252C809.275 71.3972 808.486 70.645 807.514 70.645C806.541 70.645 805.752 71.3972 805.752 72.3252C805.752 73.2531 806.541 74.0053 807.514 74.0053Z" fill="white"/>
<path opacity="0.57" d="M746.951 119.18C746.951 120.091 747.725 120.829 748.68 120.829C749.634 120.829 750.408 120.091 750.408 119.18C750.408 118.27 749.634 117.532 748.68 117.532C747.725 117.532 746.951 118.27 746.951 119.18Z" fill="white"/>
<path opacity="0.39" d="M748.053 70.5822C748.053 71.4772 748.81 72.1995 749.749 72.1995C750.687 72.1995 751.444 71.4772 751.444 70.5822C751.444 69.6871 750.687 68.9648 749.749 68.9648C748.81 68.9648 748.053 69.6871 748.053 70.5822Z" fill="white"/>
<path opacity="0.32" d="M761.141 23.9938C761.996 23.9938 762.688 23.3329 762.688 22.5178C762.688 21.7026 761.996 21.0417 761.141 21.0417C760.287 21.0417 759.594 21.7026 759.594 22.5178C759.594 23.3329 760.287 23.9938 761.141 23.9938Z" fill="white"/>
<path opacity="0.25" d="M703.673 37.0263C703.673 38.3767 704.809 39.4601 706.225 39.4601C707.64 39.4601 708.776 38.3767 708.776 37.0263C708.776 35.6759 707.64 34.5925 706.225 34.5925C704.825 34.5767 703.673 35.6759 703.673 37.0263Z" fill="white"/>
<path opacity="0.35" d="M963.207 48.0179C963.643 48.0179 963.997 47.6805 963.997 47.2642C963.997 46.8479 963.643 46.5105 963.207 46.5105C962.771 46.5105 962.417 46.8479 962.417 47.2642C962.417 47.6805 962.771 48.0179 963.207 48.0179Z" fill="white"/>
<path opacity="0.2" d="M940.49 70.2209C941.231 70.9275 942.449 70.9275 943.206 70.2209C943.947 69.5143 943.947 68.3524 943.206 67.63C942.466 66.9234 941.247 66.9234 940.49 67.63C939.733 68.3366 939.75 69.5143 940.49 70.2209Z" fill="white"/>
<path opacity="0.21" d="M892.159 25.5951C893.328 26.71 895.237 26.71 896.423 25.5951C897.591 24.4803 897.591 22.6588 896.423 21.5283C895.254 20.4134 893.344 20.4134 892.159 21.5283C890.99 22.6588 890.99 24.4803 892.159 25.5951Z" fill="white"/>
<path opacity="0.47" d="M911.616 56.4185C911.988 56.4185 912.291 56.1302 912.291 55.7747C912.291 55.4191 911.988 55.1309 911.616 55.1309C911.243 55.1309 910.941 55.4191 910.941 55.7747C910.941 56.1302 911.243 56.4185 911.616 56.4185Z" fill="white"/>
<path opacity="0.56" d="M922.81 103.416C923.429 103.416 923.93 102.938 923.93 102.348C923.93 101.758 923.429 101.28 922.81 101.28C922.192 101.28 921.691 101.758 921.691 102.348C921.691 102.938 922.192 103.416 922.81 103.416Z" fill="white"/>
<path opacity="0.37" d="M954.038 144.571C955.584 144.571 956.837 143.376 956.837 141.901C956.837 140.427 955.584 139.232 954.038 139.232C952.492 139.232 951.24 140.427 951.24 141.901C951.24 143.376 952.492 144.571 954.038 144.571Z" fill="white"/>
<path opacity="0.36" d="M878.067 68.1166C879.104 69.1058 880.767 69.1058 881.804 68.1166C882.841 67.1274 882.841 65.5415 881.804 64.5522C880.767 63.563 879.104 63.563 878.067 64.5522C877.03 65.5258 877.03 67.1274 878.067 68.1166Z" fill="white"/>
<path opacity="0.3" d="M869.376 94.0252C870.331 94.9359 871.862 94.9359 872.816 94.0252C873.771 93.1145 873.771 91.6542 872.816 90.7435C871.862 89.8327 870.331 89.8327 869.376 90.7435C868.421 91.6542 868.421 93.1145 869.376 94.0252Z" fill="white"/>
<path opacity="0.23" d="M887.237 125.728C887.896 126.356 888.949 126.356 889.608 125.728C890.266 125.1 890.266 124.095 889.608 123.467C888.949 122.839 887.896 122.839 887.237 123.467C886.579 124.095 886.579 125.1 887.237 125.728Z" fill="white"/>
<path opacity="0.2" d="M740.267 162.754C740.267 164.057 741.37 165.109 742.737 165.109C744.103 165.109 745.206 164.057 745.206 162.754C745.206 161.451 744.103 160.399 742.737 160.399C741.37 160.399 740.267 161.451 740.267 162.754Z" fill="white"/>
<path opacity="0.62" d="M501.608 336.185C502.635 336.185 503.468 335.39 503.468 334.41C503.468 333.431 502.635 332.636 501.608 332.636C500.58 332.636 499.747 333.431 499.747 334.41C499.747 335.39 500.58 336.185 501.608 336.185Z" fill="white"/>
<path opacity="0.7" d="M715.361 172.662C715.952 172.662 716.431 172.205 716.431 171.642C716.431 171.078 715.952 170.621 715.361 170.621C714.77 170.621 714.291 171.078 714.291 171.642C714.291 172.205 714.77 172.662 715.361 172.662Z" fill="white"/>
<path opacity="0.23" d="M660.034 182.649C660.034 183.685 660.923 184.533 662.01 184.533C663.096 184.533 663.985 183.685 663.985 182.649C663.985 181.613 663.096 180.765 662.01 180.765C660.923 180.765 660.034 181.613 660.034 182.649Z" fill="white"/>
<path opacity="0.52" d="M705.287 111.078C705.287 111.863 705.962 112.491 706.769 112.491C707.592 112.491 708.25 111.848 708.25 111.078C708.25 110.309 707.575 109.665 706.769 109.665C705.962 109.665 705.287 110.293 705.287 111.078Z" fill="white"/>
<path opacity="0.79" d="M737.42 199.89C737.42 201.083 738.441 202.073 739.708 202.073C740.976 202.073 741.997 201.099 741.997 199.89C741.997 198.681 740.976 197.707 739.708 197.707C738.441 197.707 737.42 198.681 737.42 199.89Z" fill="white"/>
<path opacity="0.79" d="M599.637 218.905C599.637 219.942 600.526 220.789 601.612 220.789C602.699 220.789 603.588 219.942 603.588 218.905C603.588 217.869 602.699 217.021 601.612 217.021C600.526 217.021 599.637 217.869 599.637 218.905Z" fill="white"/>
<path opacity="0.61" d="M852.98 129.968C852.651 129.842 852.289 129.984 852.141 130.298C852.009 130.612 852.157 130.957 852.486 131.099C852.815 131.224 853.177 131.083 853.325 130.769C853.457 130.455 853.292 130.094 852.98 129.968Z" fill="white"/>
<path opacity="0.58" d="M831.728 141.085C833.074 141.085 834.165 140.045 834.165 138.761C834.165 137.478 833.074 136.437 831.728 136.437C830.383 136.437 829.292 137.478 829.292 138.761C829.292 140.045 830.383 141.085 831.728 141.085Z" fill="white"/>
<path opacity="0.32" d="M901.098 159.598C902.02 160.478 903.518 160.478 904.456 159.598C905.378 158.719 905.378 157.29 904.456 156.395C903.535 155.516 902.037 155.516 901.098 156.395C900.16 157.274 900.16 158.719 901.098 159.598Z" fill="white"/>
<path opacity="0.57" d="M810.608 182.335C811.299 182.335 811.859 181.801 811.859 181.142C811.859 180.483 811.299 179.948 810.608 179.948C809.917 179.948 809.357 180.483 809.357 181.142C809.357 181.801 809.917 182.335 810.608 182.335Z" fill="white"/>
<path opacity="0.41" d="M827.942 215.247C829.033 215.247 829.917 214.403 829.917 213.363C829.917 212.322 829.033 211.478 827.942 211.478C826.851 211.478 825.966 212.322 825.966 213.363C825.966 214.403 826.851 215.247 827.942 215.247Z" fill="white"/>
<path opacity="0.37" d="M824.091 140.017C824.535 140.441 825.276 140.441 825.721 140.017C826.165 139.593 826.165 138.887 825.721 138.463C825.276 138.039 824.535 138.039 824.091 138.463C823.63 138.887 823.63 139.578 824.091 140.017Z" fill="white"/>
<path opacity="0.26" d="M864.915 194.049C866.279 194.049 867.384 192.994 867.384 191.693C867.384 190.392 866.279 189.338 864.915 189.338C863.551 189.338 862.446 190.392 862.446 191.693C862.446 192.994 863.551 194.049 864.915 194.049Z" fill="white"/>
<path opacity="0.72" d="M768.417 135.385C769.553 136.469 771.38 136.469 772.5 135.385C773.635 134.302 773.635 132.559 772.5 131.491C771.364 130.408 769.537 130.408 768.417 131.491C767.281 132.559 767.281 134.302 768.417 135.385Z" fill="white"/>
<path opacity="0.38" d="M786.36 166.994C787.15 167.747 788.418 167.747 789.192 166.994C789.982 166.24 789.982 165.031 789.192 164.293C788.402 163.539 787.134 163.539 786.36 164.293C785.587 165.047 785.587 166.256 786.36 166.994Z" fill="white"/>
<path opacity="0.71" d="M778.936 192.384C779.336 192.384 779.66 192.075 779.66 191.693C779.66 191.312 779.336 191.002 778.936 191.002C778.536 191.002 778.212 191.312 778.212 191.693C778.212 192.075 778.536 192.384 778.936 192.384Z" fill="white"/>
<path opacity="0.62" d="M795.086 225.045C795.744 225.673 796.798 225.673 797.456 225.045C798.114 224.417 798.114 223.412 797.456 222.784C796.798 222.156 795.744 222.156 795.086 222.784C794.427 223.412 794.427 224.417 795.086 225.045Z" fill="white"/>
<path opacity="0.59" d="M536.342 34.8283C537.428 35.2051 538.63 34.6712 539.025 33.6349C539.42 32.5985 538.86 31.4523 537.774 31.0754C536.687 30.6986 535.486 31.2325 535.091 32.2688C534.696 33.3052 535.255 34.4514 536.342 34.8283Z" fill="white"/>
<path opacity="0.39" d="M559.141 107.938C559.816 108.173 560.573 107.843 560.82 107.2C561.067 106.556 560.721 105.834 560.046 105.598C559.371 105.362 558.614 105.692 558.367 106.336C558.104 106.98 558.466 107.686 559.141 107.938Z" fill="white"/>
<path opacity="0.37" d="M505.015 58.0044C505.492 58.1614 506.019 57.9416 506.184 57.4862C506.349 57.0309 506.118 56.5284 505.641 56.3714C505.163 56.2143 504.636 56.4342 504.472 56.8895C504.291 57.3449 504.538 57.8474 505.015 58.0044Z" fill="white"/>
<path opacity="0.54" d="M475.96 25.8622C477.244 26.3019 478.644 25.6738 479.121 24.4648C479.582 23.24 478.923 21.9053 477.656 21.4499C476.372 21.0103 474.973 21.6384 474.495 22.8474C474.034 24.0565 474.693 25.4069 475.96 25.8622Z" fill="white"/>
<path opacity="0.2" d="M504.916 108.534C505.887 108.88 506.974 108.393 507.336 107.467C507.698 106.54 507.188 105.504 506.217 105.158C505.245 104.813 504.159 105.3 503.797 106.226C503.435 107.168 503.945 108.189 504.916 108.534Z" fill="white"/>
<path opacity="0.37" d="M162.729 156.301C163.897 155.782 164.408 154.448 163.864 153.333C163.321 152.218 161.922 151.731 160.753 152.249C159.584 152.768 159.074 154.102 159.617 155.217C160.177 156.332 161.56 156.819 162.729 156.301Z" fill="white"/>
<path opacity="0.28" d="M138.975 177.954C139.617 177.671 139.896 176.949 139.6 176.337C139.304 175.724 138.547 175.457 137.905 175.74C137.263 176.022 136.983 176.745 137.279 177.357C137.575 177.985 138.349 178.252 138.975 177.954Z" fill="white"/>
<path opacity="0.68" d="M199.34 190.469C200.048 190.155 200.361 189.338 200.031 188.663C199.702 187.988 198.846 187.689 198.138 188.003C197.43 188.318 197.118 189.134 197.447 189.809C197.76 190.484 198.616 190.783 199.34 190.469Z" fill="white"/>
<path opacity="0.77" d="M945.445 20.5079C946.12 20.2096 946.4 19.4559 946.087 18.8121C945.774 18.1683 944.984 17.9013 944.309 18.1997C943.634 18.498 943.354 19.2517 943.667 19.8955C943.98 20.5236 944.786 20.8063 945.445 20.5079Z" fill="white"/>
<path opacity="0.77" d="M819.909 13.1121C820.518 12.8451 820.781 12.1542 820.502 11.5733C820.222 10.9923 819.497 10.741 818.888 11.008C818.279 11.2749 818.016 11.9658 818.296 12.5468C818.576 13.1278 819.3 13.379 819.909 13.1121Z" fill="white"/>
<path opacity="0.65" d="M279.936 236.083C280.989 236.445 282.158 235.926 282.553 234.921C282.932 233.917 282.388 232.802 281.335 232.425C280.281 232.064 279.113 232.582 278.717 233.587C278.322 234.592 278.882 235.707 279.936 236.083Z" fill="white"/>
<path opacity="0.65" d="M387.101 294.166C388.154 294.527 389.323 294.009 389.718 293.004C390.097 291.999 389.553 290.884 388.5 290.507C387.446 290.146 386.278 290.664 385.883 291.669C385.504 292.69 386.047 293.804 387.101 294.166Z" fill="white"/>
<path opacity="0.65" d="M554.598 389.133C555.651 389.494 556.82 388.976 557.215 387.971C557.594 386.966 557.051 385.851 555.997 385.474C554.944 385.113 553.775 385.631 553.38 386.636C553.001 387.641 553.544 388.772 554.598 389.133Z" fill="white"/>
<path opacity="0.38" d="M638.486 139.97C639.951 140.488 641.58 139.766 642.107 138.353C642.65 136.955 641.893 135.401 640.428 134.898C638.963 134.38 637.333 135.102 636.807 136.5C636.263 137.913 637.021 139.468 638.486 139.97Z" fill="white"/>
<path opacity="0.22" d="M607.768 10.5367C606.715 11.6516 606.797 13.3788 607.966 14.3837C609.135 15.3887 610.945 15.3102 611.999 14.1953C613.053 13.0805 612.97 11.3532 611.801 10.3483C610.633 9.34333 608.822 9.42184 607.768 10.5367Z" fill="white"/>
<path opacity="0.71" d="M647.013 30.1178C648.231 29.5839 648.758 28.2021 648.198 27.0402C647.638 25.8782 646.19 25.3757 644.972 25.9096C643.753 26.4435 643.227 27.8253 643.786 28.9872C644.346 30.1492 645.795 30.6674 647.013 30.1178Z" fill="white"/>
<path opacity="0.41" d="M993.069 115.977C993.513 116.134 994.007 115.914 994.155 115.49C994.303 115.066 994.089 114.595 993.645 114.454C993.2 114.297 992.707 114.517 992.558 114.941C992.41 115.365 992.624 115.82 993.069 115.977Z" fill="white"/>
<path opacity="0.49" d="M998.682 27.6365C999.785 27.1497 1000.25 25.9092 999.735 24.8572C999.225 23.8051 997.925 23.3655 996.822 23.8522C995.719 24.339 995.258 25.5795 995.768 26.6315C996.295 27.6679 997.595 28.1232 998.682 27.6365Z" fill="white"/>
<path opacity="0.5" d="M974.614 14.0073C975.338 13.6775 975.668 12.861 975.322 12.1544C974.976 11.4635 974.12 11.1495 973.379 11.4792C972.655 11.809 972.326 12.6255 972.672 13.3321C973.001 14.023 973.873 14.3213 974.614 14.0073Z" fill="white"/>
<path opacity="0.72" d="M1013.12 45.8511C1014.29 45.3329 1014.8 43.9982 1014.25 42.8833C1013.71 41.7685 1012.31 41.2817 1011.14 41.7999C1009.97 42.3181 1009.46 43.6528 1010.01 44.7676C1010.55 45.8825 1011.93 46.3692 1013.12 45.8511Z" fill="white"/>
<path opacity="0.41" d="M1099.2 50.1847C1099.71 49.9492 1099.94 49.3682 1099.69 48.8814C1099.44 48.3947 1098.83 48.1748 1098.32 48.4104C1097.81 48.6459 1097.58 49.2269 1097.83 49.7136C1098.06 50.2004 1098.67 50.4203 1099.2 50.1847Z" fill="white"/>
<path opacity="0.35" d="M980.41 150.726C981.085 150.428 981.364 149.674 981.052 149.03C980.739 148.387 979.949 148.12 979.274 148.418C978.599 148.716 978.319 149.47 978.632 150.114C978.945 150.742 979.735 151.025 980.41 150.726Z" fill="white"/>
<path opacity="0.36" d="M1078.97 3.83347C1079.76 3.48802 1080.1 2.57729 1079.74 1.82359C1079.38 1.06988 1078.44 0.740132 1077.63 1.08558C1076.84 1.43103 1076.5 2.34176 1076.86 3.09546C1077.24 3.86487 1078.17 4.19462 1078.97 3.83347Z" fill="white"/>
<path opacity="0.46" d="M974.318 80.9771C974.697 80.8044 974.861 80.3804 974.68 80.0193C974.499 79.6581 974.055 79.5011 973.676 79.6738C973.298 79.8465 973.133 80.2705 973.314 80.6317C973.479 80.9928 973.923 81.1498 974.318 80.9771Z" fill="white"/>
<path opacity="0.27" d="M1073.04 90.4298C1074.34 89.8489 1074.9 88.3885 1074.29 87.1481C1073.68 85.9076 1072.15 85.3737 1070.85 85.9547C1069.55 86.5357 1068.99 87.996 1069.6 89.2365C1070.21 90.4769 1071.74 91.0108 1073.04 90.4298Z" fill="white"/>
<path opacity="0.29" d="M1063.98 120.861C1063.19 121.693 1063.26 122.98 1064.13 123.734C1065 124.488 1066.35 124.425 1067.14 123.593C1067.93 122.761 1067.87 121.473 1067 120.719C1066.12 119.966 1064.77 120.028 1063.98 120.861Z" fill="white"/>
<path opacity="0.36" d="M645.91 68.698C646.618 68.384 646.931 67.5675 646.602 66.8923C646.272 66.2171 645.416 65.9187 644.708 66.2327C644.001 66.5468 643.688 67.3633 644.017 68.0385C644.33 68.7137 645.186 69.0121 645.91 68.698Z" fill="white"/>
<path opacity="0.33" d="M683.475 64.0188C684.084 63.7518 684.347 63.061 684.067 62.48C683.788 61.899 683.063 61.6478 682.454 61.9147C681.845 62.1816 681.582 62.8725 681.861 63.4535C682.141 64.0345 682.866 64.2857 683.475 64.0188Z" fill="white"/>
<path opacity="0.57" d="M674.586 22.9887C674.915 22.8474 675.063 22.4548 674.915 22.1407C674.767 21.8267 674.355 21.6854 674.026 21.8267C673.697 21.968 673.549 22.3606 673.697 22.6746C673.845 23.0044 674.24 23.1457 674.586 22.9887Z" fill="white"/>
<path opacity="0.71" d="M585.611 89.2833C586.879 88.718 587.422 87.2891 586.83 86.08C586.237 84.8709 584.739 84.3528 583.471 84.918C582.204 85.4833 581.661 86.9122 582.253 88.1213C582.846 89.3147 584.344 89.8328 585.611 89.2833Z" fill="white"/>
<path opacity="0.71" d="M592.69 357.87C593.958 357.304 594.501 355.876 593.908 354.666C593.316 353.457 591.818 352.939 590.55 353.504C589.283 354.07 588.739 355.499 589.332 356.708C589.925 357.901 591.423 358.435 592.69 357.87Z" fill="white"/>
<path opacity="0.21" d="M622.485 83.1595C622.797 83.0182 622.945 82.657 622.797 82.343C622.649 82.0446 622.271 81.9033 621.942 82.0446C621.629 82.186 621.481 82.5471 621.629 82.8612C621.777 83.1752 622.156 83.3008 622.485 83.1595Z" fill="white"/>
<path opacity="0.69" d="M645.482 100.809C646.256 100.464 646.602 99.5843 646.239 98.8463C645.877 98.1083 644.955 97.7785 644.182 98.124C643.408 98.4694 643.062 99.3487 643.425 100.087C643.787 100.825 644.709 101.154 645.482 100.809Z" fill="white"/>
<path opacity="0.21" d="M200.146 16.4884C200.146 17.9016 201.348 19.0479 202.83 19.0479C204.311 19.0479 205.513 17.9016 205.513 16.4884C205.513 15.0752 204.311 13.929 202.83 13.929C201.332 13.9447 200.146 15.0752 200.146 16.4884Z" fill="white"/>
<path opacity="0.42" d="M408.879 28.2801C409.834 29.1908 411.365 29.1908 412.319 28.2801C413.274 27.3694 413.274 25.9091 412.319 24.9984C411.365 24.0876 409.834 24.0876 408.879 24.9984C407.941 25.8934 407.941 27.3694 408.879 28.2801Z" fill="white"/>
<path opacity="0.4" d="M316.629 48.1749C317.123 48.646 317.929 48.646 318.44 48.1749C318.933 47.7038 318.933 46.9344 318.44 46.4477C317.946 45.9766 317.139 45.9766 316.629 46.4477C316.135 46.9344 316.135 47.7038 316.629 48.1749Z" fill="white"/>
<path opacity="0.34" d="M361.585 5.59098C361.94 5.59098 362.227 5.31681 362.227 4.97859C362.227 4.64038 361.94 4.36621 361.585 4.36621C361.231 4.36621 360.943 4.64038 360.943 4.97859C360.943 5.31681 361.231 5.59098 361.585 5.59098Z" fill="white"/>
<path opacity="0.49" d="M378.92 39.0365C379.992 39.0365 380.862 38.207 380.862 37.1837C380.862 36.1604 379.992 35.3308 378.92 35.3308C377.847 35.3308 376.977 36.1604 376.977 37.1837C376.977 38.207 377.847 39.0365 378.92 39.0365Z" fill="white"/>
<path opacity="0.58" d="M233.234 75.9836C233.606 75.9836 233.908 75.6954 233.908 75.3398C233.908 74.9843 233.606 74.696 233.234 74.696C232.861 74.696 232.559 74.9843 232.559 75.3398C232.559 75.6954 232.861 75.9836 233.234 75.9836Z" fill="white"/>
<path opacity="0.57" d="M152.506 96.3494C153.142 96.3494 153.658 95.8573 153.658 95.2503C153.658 94.6432 153.142 94.1511 152.506 94.1511C151.87 94.1511 151.354 94.6432 151.354 95.2503C151.354 95.8573 151.87 96.3494 152.506 96.3494Z" fill="white"/>
<path opacity="0.8" d="M139.798 129.716C139.798 130.297 140.292 130.753 140.885 130.753C141.477 130.753 141.971 130.282 141.971 129.716C141.971 129.151 141.477 128.68 140.885 128.68C140.292 128.68 139.798 129.136 139.798 129.716Z" fill="white"/>
<path opacity="0.78" d="M272.627 50.028C272.627 50.9858 273.45 51.7709 274.454 51.7709C275.458 51.7709 276.282 50.9858 276.282 50.028C276.282 49.0701 275.458 48.285 274.454 48.285C273.434 48.285 272.627 49.0701 272.627 50.028Z" fill="white"/>
<path opacity="0.56" d="M138.383 85.1695C138.919 85.1695 139.354 84.7547 139.354 84.2431C139.354 83.7314 138.919 83.3167 138.383 83.3167C137.846 83.3167 137.411 83.7314 137.411 84.2431C137.411 84.7547 137.846 85.1695 138.383 85.1695Z" fill="white"/>
<path opacity="0.33" d="M107.797 115.804C107.797 117.312 109.081 118.537 110.661 118.537C112.241 118.537 113.525 117.312 113.525 115.804C113.525 114.297 112.241 113.072 110.661 113.072C109.081 113.072 107.797 114.297 107.797 115.804Z" fill="white"/>
<path opacity="0.24" d="M340.202 83.1908C341.565 83.1908 342.671 82.1363 342.671 80.8354C342.671 79.5346 341.565 78.4801 340.202 78.4801C338.838 78.4801 337.732 79.5346 337.732 80.8354C337.732 82.1363 338.838 83.1908 340.202 83.1908Z" fill="white"/>
<path opacity="0.49" d="M392.286 71.5241C392.829 72.0423 393.718 72.0423 394.261 71.5241C394.805 71.0059 394.805 70.158 394.261 69.6399C393.718 69.1217 392.829 69.1217 392.286 69.6399C391.743 70.158 391.743 71.0059 392.286 71.5241Z" fill="white"/>
<path opacity="0.57" d="M317.798 126.56C318.16 126.906 318.736 126.906 319.082 126.56C319.427 126.215 319.444 125.665 319.082 125.336C318.72 124.99 318.143 124.99 317.798 125.336C317.452 125.681 317.452 126.231 317.798 126.56Z" fill="white"/>
<path opacity="0.36" d="M353.371 106.242C354.507 107.325 356.334 107.325 357.454 106.242C358.589 105.158 358.589 103.415 357.454 102.348C356.318 101.264 354.49 101.264 353.371 102.348C352.252 103.415 352.252 105.158 353.371 106.242Z" fill="white"/>
<path opacity="0.43" d="M278.29 78.9356C278.689 78.9356 279.014 78.6263 279.014 78.2447C279.014 77.8632 278.689 77.5538 278.29 77.5538C277.89 77.5538 277.566 77.8632 277.566 78.2447C277.566 78.6263 277.89 78.9356 278.29 78.9356Z" fill="white"/>
<path opacity="0.63" d="M268.001 105.661C268.791 106.415 270.091 106.415 270.881 105.661C271.672 104.907 271.672 103.667 270.881 102.913C270.091 102.159 268.791 102.159 268.001 102.913C267.194 103.667 267.194 104.907 268.001 105.661Z" fill="white"/>
<path opacity="0.31" d="M286.767 137.112C287.122 137.112 287.409 136.838 287.409 136.5C287.409 136.162 287.122 135.888 286.767 135.888C286.413 135.888 286.125 136.162 286.125 136.5C286.125 136.838 286.413 137.112 286.767 137.112Z" fill="white"/>
<path opacity="0.57" d="M25.1762 43.9041C26.4766 44.3595 27.9088 43.7157 28.3697 42.4909C28.8471 41.2504 28.1722 39.8843 26.8882 39.4447C25.5877 38.9893 24.172 39.6331 23.6946 40.8579C23.2172 42.0827 23.8922 43.4487 25.1762 43.9041Z" fill="white"/>
<path opacity="0.75" d="M52.4863 65.4162C53.1118 65.636 53.8197 65.322 54.0501 64.7253C54.2806 64.1286 53.9514 63.4534 53.3258 63.2336C52.7003 63.0138 51.9924 63.3278 51.7619 63.9245C51.5315 64.5212 51.8607 65.1964 52.4863 65.4162Z" fill="white"/>
<path opacity="0.59" d="M92.7999 64.7724C94.3143 65.3063 95.9934 64.5526 96.5366 63.108C97.0962 61.6634 96.3061 60.0618 94.7917 59.5436C93.2773 59.0097 91.5982 59.7634 91.055 61.208C90.5118 62.6526 91.2855 64.2385 92.7999 64.7724Z" fill="white"/>
<path opacity="0.52" d="M79.6149 6.26608C80.1417 6.45451 80.7178 6.18758 80.8988 5.70081C81.0964 5.19834 80.8165 4.64876 80.3062 4.47603C79.7795 4.28761 79.2034 4.55455 79.0223 5.04131C78.8248 5.54378 79.1046 6.09336 79.6149 6.26608Z" fill="white"/>
<path opacity="0.48" d="M148.128 94.7479C149.494 95.219 151.025 94.5438 151.519 93.2405C152.013 91.9372 151.305 90.4769 149.939 90.0059C148.573 89.5348 147.042 90.21 146.548 91.5133C146.054 92.8323 146.762 94.2769 148.128 94.7479Z" fill="white"/>
<path opacity="0.74" d="M23.5797 142.75C24.6991 143.142 25.9337 142.593 26.3453 141.525C26.7568 140.457 26.1807 139.279 25.0612 138.887C23.9418 138.494 22.7072 139.044 22.2957 140.112C21.8841 141.179 22.4603 142.357 23.5797 142.75Z" fill="white"/>
<path opacity="0.62" d="M61.4577 138.259C62.7417 138.698 64.1409 138.07 64.6183 136.861C65.0792 135.636 64.4208 134.302 63.1532 133.846C61.8692 133.407 60.4699 134.035 59.9925 135.244C59.5316 136.469 60.1901 137.819 61.4577 138.259Z" fill="white"/>
<path opacity="0.74" d="M91.2696 160.87C92.7677 161.388 94.4303 160.65 94.9736 159.221C95.5168 157.792 94.7431 156.206 93.2451 155.688C91.7471 155.17 90.0844 155.908 89.5411 157.337C89.0144 158.766 89.7716 160.352 91.2696 160.87Z" fill="white"/>
<path opacity="0.31" d="M174.22 10.0656C175.668 9.4218 176.294 7.78877 175.619 6.40697C174.944 5.02518 173.232 4.4285 171.783 5.07229C170.334 5.71608 169.709 7.3491 170.384 8.7309C171.059 10.1127 172.771 10.7094 174.22 10.0656Z" fill="white"/>
<path opacity="0.32" d="M271.557 324.157C271.557 322.917 270.503 321.927 269.22 321.927C267.919 321.927 266.882 322.932 266.882 324.157C266.882 325.382 267.936 326.387 269.22 326.387C270.503 326.387 271.557 325.382 271.557 324.157Z" fill="white"/>
<path opacity="0.54" d="M365.75 360.916C365.75 360.21 365.157 359.644 364.416 359.644C363.676 359.644 363.083 360.21 363.083 360.916C363.083 361.623 363.676 362.188 364.416 362.188C365.157 362.188 365.75 361.607 365.75 360.916Z" fill="white"/>
<path opacity="0.49" d="M292.99 350.113C292.99 349.579 292.545 349.155 291.986 349.155C291.426 349.155 290.982 349.579 290.982 350.113C290.982 350.647 291.426 351.071 291.986 351.071C292.545 351.071 292.99 350.631 292.99 350.113Z" fill="white"/>
<path opacity="0.6" d="M320.333 359.566C320.333 358.577 319.493 357.76 318.456 357.76C317.419 357.76 316.563 358.561 316.563 359.566C316.563 360.555 317.403 361.371 318.456 361.371C319.493 361.371 320.333 360.555 320.333 359.566Z" fill="white"/>
<path opacity="0.6" d="M382.754 408.243C382.754 407.253 381.915 406.453 380.861 406.453C379.824 406.453 378.968 407.253 378.968 408.243C378.968 409.232 379.808 410.048 380.861 410.048C381.915 410.033 382.754 409.232 382.754 408.243Z" fill="white"/>
<path opacity="0.42" d="M442.675 45.4271C442.675 45.0817 442.379 44.7833 442 44.7833C441.638 44.7833 441.325 45.066 441.325 45.4271C441.325 45.7726 441.622 46.0709 442 46.0709C442.379 46.0709 442.675 45.7883 442.675 45.4271Z" fill="white"/>
<path opacity="0.35" d="M224.279 384.47C224.279 382.899 222.946 381.627 221.3 381.627C219.653 381.627 218.32 382.899 218.32 384.47C218.32 386.04 219.653 387.312 221.3 387.312C222.946 387.312 224.279 386.04 224.279 384.47Z" fill="white"/>
<path opacity="0.76" d="M273.565 287.006C273.565 286.315 272.973 285.765 272.265 285.765C271.557 285.765 270.964 286.331 270.964 287.006C270.964 287.697 271.557 288.246 272.265 288.246C272.973 288.246 273.565 287.697 273.565 287.006Z" fill="white"/>
<path opacity="0.59" d="M257.894 149.784C257.894 148.983 257.219 148.339 256.379 148.339C255.54 148.339 254.865 148.983 254.865 149.784C254.865 150.585 255.54 151.229 256.379 151.229C257.219 151.244 257.894 150.585 257.894 149.784Z" fill="white"/>
<path opacity="0.2" d="M1107.66 332.856C1107.66 331.443 1106.46 330.297 1104.97 330.297C1103.49 330.297 1102.29 331.443 1102.29 332.856C1102.29 334.27 1103.49 335.416 1104.97 335.416C1106.47 335.416 1107.66 334.27 1107.66 332.856Z" fill="white"/>
<path opacity="0.4" d="M1014.42 178.252C1014.42 176.792 1013.18 175.614 1011.65 175.614C1010.12 175.614 1008.89 176.792 1008.89 178.252C1008.89 179.713 1010.12 180.89 1011.65 180.89C1013.18 180.89 1014.42 179.697 1014.42 178.252Z" fill="white"/>
<path opacity="0.49" d="M180.985 349.532C180.211 348.794 178.96 348.794 178.187 349.532C177.413 350.27 177.413 351.464 178.187 352.202C178.96 352.94 180.211 352.94 180.985 352.202C181.759 351.464 181.759 350.27 180.985 349.532Z" fill="white"/>
<path opacity="0.27" d="M163.931 317.06C163.009 316.18 161.511 316.18 160.572 317.06C159.651 317.939 159.651 319.368 160.572 320.263C161.494 321.142 162.992 321.142 163.931 320.263C164.852 319.368 164.852 317.939 163.931 317.06Z" fill="white"/>
<path opacity="0.78" d="M210.994 362.895C210.336 362.266 209.283 362.266 208.624 362.895C207.966 363.523 207.966 364.527 208.624 365.156C209.283 365.784 210.336 365.784 210.994 365.156C211.636 364.527 211.636 363.507 210.994 362.895Z" fill="white"/>
<path opacity="0.22" d="M193.183 331.129C192.788 330.752 192.162 330.752 191.767 331.129C191.372 331.506 191.372 332.103 191.767 332.479C192.162 332.856 192.788 332.856 193.183 332.479C193.578 332.103 193.578 331.506 193.183 331.129Z" fill="white"/>
<path opacity="0.63" d="M202.649 304.498C201.924 303.807 200.755 303.807 200.031 304.498C199.307 305.189 199.307 306.304 200.031 306.995C200.755 307.686 201.924 307.686 202.649 306.995C203.373 306.32 203.373 305.189 202.649 304.498Z" fill="white"/>
<path opacity="0.28" d="M183.998 275.7C185.243 275.7 186.253 274.737 186.253 273.549C186.253 272.361 185.243 271.398 183.998 271.398C182.752 271.398 181.742 272.361 181.742 273.549C181.742 274.737 182.752 275.7 183.998 275.7Z" fill="white"/>
<path opacity="0.39" d="M212.279 339.357C211.719 338.823 210.814 338.823 210.254 339.357C209.694 339.891 209.694 340.754 210.254 341.288C210.814 341.822 211.719 341.822 212.279 341.288C212.838 340.754 212.838 339.891 212.279 339.357Z" fill="white"/>
<path opacity="0.2" d="M148.441 293.852C147.651 293.098 146.383 293.098 145.609 293.852C144.819 294.606 144.819 295.815 145.609 296.553C146.399 297.306 147.667 297.306 148.441 296.553C149.231 295.815 149.231 294.606 148.441 293.852Z" fill="white"/>
<path opacity="0.21" d="M242.37 352.625C241.876 352.154 241.086 352.154 240.609 352.625C240.115 353.096 240.115 353.85 240.609 354.305C241.103 354.776 241.893 354.776 242.37 354.305C242.864 353.85 242.864 353.096 242.37 352.625Z" fill="white"/>
<path opacity="0.68" d="M300.859 416.926C299.871 415.984 298.274 415.984 297.286 416.926C296.299 417.868 296.299 419.391 297.286 420.333C298.274 421.276 299.871 421.276 300.859 420.333C301.846 419.391 301.846 417.868 300.859 416.926Z" fill="white"/>
<path opacity="0.26" d="M233.761 294.48C233.349 294.088 232.675 294.088 232.263 294.48C231.851 294.873 231.851 295.516 232.263 295.909C232.675 296.301 233.349 296.301 233.761 295.909C234.173 295.532 234.173 294.888 233.761 294.48Z" fill="white"/>
<path opacity="0.8" d="M217.809 260.956C216.64 259.841 214.731 259.841 213.546 260.956C212.377 262.071 212.377 263.892 213.546 265.023C214.714 266.138 216.624 266.138 217.809 265.023C218.978 263.908 218.978 262.086 217.809 260.956Z" fill="white"/>
<path opacity="0.45" d="M364.104 224.841C364.104 223.396 362.886 222.234 361.372 222.234C359.857 222.234 358.639 223.396 358.639 224.841C358.639 226.285 359.857 227.447 361.372 227.447C362.886 227.447 364.104 226.285 364.104 224.841Z" fill="white"/>
<path opacity="0.48" d="M404.896 188.365C405.277 188.365 405.587 188.069 405.587 187.705C405.587 187.341 405.277 187.046 404.896 187.046C404.514 187.046 404.204 187.341 404.204 187.705C404.204 188.069 404.514 188.365 404.896 188.365Z" fill="white"/>
<path opacity="0.74" d="M1031.47 155.233C1031.47 154.134 1030.54 153.239 1029.38 153.239C1028.23 153.239 1027.29 154.134 1027.29 155.233C1027.29 156.332 1028.23 157.227 1029.38 157.227C1030.54 157.227 1031.47 156.332 1031.47 155.233Z" fill="white"/>
<path opacity="0.58" d="M1119.15 116.951C1119.15 116.496 1118.77 116.134 1118.29 116.134C1117.81 116.134 1117.44 116.496 1117.44 116.951C1117.44 117.406 1117.81 117.767 1118.29 117.767C1118.75 117.752 1119.15 117.391 1119.15 116.951Z" fill="white"/>
<path opacity="0.51" d="M437.95 81.8249C437.95 81.3852 437.588 81.0398 437.127 81.0398C436.666 81.0398 436.304 81.3852 436.304 81.8249C436.304 82.2646 436.666 82.61 437.127 82.61C437.588 82.61 437.95 82.2646 437.95 81.8249Z" fill="white"/>
<path opacity="0.44" d="M1082.11 225.5C1082.11 224.495 1081.25 223.678 1080.2 223.678C1079.15 223.678 1078.29 224.495 1078.29 225.5C1078.29 226.505 1079.15 227.321 1080.2 227.321C1081.25 227.337 1082.11 226.521 1082.11 225.5Z" fill="white"/>
<path opacity="0.22" d="M364.4 190.579C366.064 190.579 367.413 189.292 367.413 187.705C367.413 186.118 366.064 184.832 364.4 184.832C362.737 184.832 361.388 186.118 361.388 187.705C361.388 189.292 362.737 190.579 364.4 190.579Z" fill="white"/>
<path opacity="0.36" d="M1033.6 130.533C1033.6 129.544 1032.76 128.728 1031.7 128.728C1030.65 128.728 1029.81 129.528 1029.81 130.533C1029.81 131.538 1030.65 132.339 1031.7 132.339C1032.76 132.339 1033.6 131.523 1033.6 130.533Z" fill="white"/>
<path opacity="0.48" d="M1076.13 186.323C1076.13 184.831 1074.87 183.622 1073.3 183.622C1071.74 183.622 1070.47 184.831 1070.47 186.323C1070.47 187.815 1071.74 189.024 1073.3 189.024C1074.87 189.024 1076.13 187.815 1076.13 186.323Z" fill="white"/>
<path opacity="0.69" d="M250.914 258.129C251.54 258.365 252.248 258.082 252.495 257.486C252.742 256.889 252.445 256.214 251.82 255.978C251.194 255.743 250.486 256.025 250.239 256.622C249.993 257.203 250.289 257.878 250.914 258.129Z" fill="white"/>
<path opacity="0.42" d="M304.003 262.762C302.867 261.678 301.04 261.678 299.92 262.762C298.785 263.845 298.785 265.588 299.92 266.656C301.056 267.739 302.883 267.739 304.003 266.656C305.139 265.572 305.139 263.829 304.003 262.762Z" fill="white"/>
<path opacity="0.31" d="M276.15 175.63C276.959 175.63 277.615 175.004 277.615 174.232C277.615 173.46 276.959 172.835 276.15 172.835C275.341 172.835 274.685 173.46 274.685 174.232C274.685 175.004 275.341 175.63 276.15 175.63Z" fill="white"/>
<path opacity="0.78" d="M240.412 194.724C239.737 194.08 238.634 194.08 237.959 194.724C237.284 195.368 237.284 196.42 237.959 197.064C238.634 197.707 239.737 197.707 240.412 197.064C241.086 196.42 241.086 195.368 240.412 194.724Z" fill="white"/>
<path opacity="0.57" d="M334.506 253.325C334.029 252.869 333.255 252.869 332.794 253.325C332.317 253.78 332.317 254.518 332.794 254.958C333.271 255.413 334.045 255.413 334.506 254.958C334.983 254.518 334.983 253.78 334.506 253.325Z" fill="white"/>
<path opacity="0.57" d="M397.274 352.782C397.947 352.782 398.492 352.262 398.492 351.62C398.492 350.979 397.947 350.458 397.274 350.458C396.601 350.458 396.056 350.979 396.056 351.62C396.056 352.262 396.601 352.782 397.274 352.782Z" fill="white"/>
<path opacity="0.72" d="M151.157 405.055C149.988 403.94 148.078 403.94 146.893 405.055C145.724 406.17 145.724 407.991 146.893 409.122C148.062 410.237 149.972 410.237 151.157 409.122C152.342 407.991 152.342 406.17 151.157 405.055Z" fill="white"/>
<path opacity="0.72" d="M434.823 374.184C433.654 373.07 431.745 373.07 430.559 374.184C429.391 375.299 429.391 377.121 430.559 378.251C431.728 379.366 433.638 379.366 434.823 378.251C436.008 377.136 436.008 375.315 434.823 374.184Z" fill="white"/>
<path opacity="0.37" d="M322.357 187.014C323.885 187.014 325.123 185.833 325.123 184.376C325.123 182.919 323.885 181.738 322.357 181.738C320.83 181.738 319.592 182.919 319.592 184.376C319.592 185.833 320.83 187.014 322.357 187.014Z" fill="white"/>
<path opacity="0.3" d="M308.381 163.163C308.084 162.88 307.607 162.88 307.311 163.163C307.015 163.445 307.015 163.901 307.311 164.183C307.607 164.466 308.084 164.466 308.381 164.183C308.677 163.901 308.677 163.445 308.381 163.163Z" fill="white"/>
<path opacity="0.52" d="M18.7886 278.149C19.7763 277.71 20.2043 276.595 19.7434 275.653C19.2825 274.711 18.1136 274.302 17.126 274.742C16.1383 275.182 15.7103 276.297 16.1712 277.239C16.6321 278.181 17.8009 278.589 18.7886 278.149Z" fill="white"/>
<path opacity="0.21" d="M22.0983 110.906C22.3452 111.141 22.7566 111.141 23.0034 110.906C23.2502 110.67 23.2502 110.277 23.0034 110.042C22.7566 109.806 22.3452 109.806 22.0983 110.042C21.8515 110.277 21.8515 110.67 22.0983 110.906Z" fill="white"/>
<path opacity="0.29" d="M50.083 187.25C50.6194 187.25 51.0542 186.835 51.0542 186.323C51.0542 185.811 50.6194 185.397 50.083 185.397C49.5465 185.397 49.1117 185.811 49.1117 186.323C49.1117 186.835 49.5465 187.25 50.083 187.25Z" fill="white"/>
<path opacity="0.23" d="M6.39311 154.95C7.39726 155.908 9.01048 155.908 9.99817 154.95C11.0023 153.992 11.0023 152.453 9.99817 151.511C8.99402 150.553 7.3808 150.553 6.39311 151.511C5.40542 152.469 5.40542 154.008 6.39311 154.95Z" fill="white"/>
<path opacity="0.23" d="M127.732 268.571C127.732 267.833 127.107 267.237 126.333 267.237C125.559 267.237 124.934 267.833 124.934 268.571C124.934 269.309 125.559 269.906 126.333 269.906C127.107 269.906 127.732 269.309 127.732 268.571Z" fill="white"/>
<path opacity="0.69" d="M15.414 222.705C15.1343 222.439 14.7065 222.439 14.4268 222.705C14.1471 222.972 14.1471 223.381 14.4268 223.648C14.7065 223.914 15.1343 223.914 15.414 223.648C15.6937 223.381 15.6937 222.957 15.414 222.705Z" fill="white"/>
<path opacity="0.68" d="M-0.47085 189.118C-1.54084 188.097 -3.2693 188.097 -4.33929 189.118C-5.40928 190.139 -5.40928 191.788 -4.33929 192.808C-3.2693 193.829 -1.54084 193.829 -0.47085 192.808C0.599142 191.788 0.599142 190.139 -0.47085 189.118Z" fill="white"/>
<path opacity="0.62" d="M55.0868 271.837C55.6413 271.837 56.0909 271.409 56.0909 270.88C56.0909 270.351 55.6413 269.922 55.0868 269.922C54.5322 269.922 54.0826 270.351 54.0826 270.88C54.0826 271.409 54.5322 271.837 55.0868 271.837Z" fill="white"/>
<path opacity="0.41" d="M39.7284 236.79C38.6419 235.753 36.8641 235.753 35.7776 236.79C34.6912 237.826 34.6912 239.522 35.7776 240.558C36.8641 241.595 38.6419 241.595 39.7284 240.558C40.8148 239.522 40.8148 237.826 39.7284 236.79Z" fill="white"/>
<path opacity="0.32" d="M48.5187 210.803C47.4652 209.798 45.7532 209.798 44.6997 210.803C43.6462 211.808 43.6462 213.441 44.6997 214.446C45.7532 215.451 47.4652 215.451 48.5187 214.446C49.5723 213.441 49.5723 211.808 48.5187 210.803Z" fill="white"/>
<path opacity="0.5" d="M30.938 178.833C30.0162 177.954 28.5346 177.954 27.6292 178.833C26.7073 179.713 26.7073 181.126 27.6292 181.989C28.5511 182.869 30.0326 182.869 30.938 181.989C31.8434 181.11 31.8434 179.697 30.938 178.833Z" fill="white"/>
<path opacity="0.58" d="M902.399 211.305C901.641 211.651 901.312 212.499 901.658 213.237C902.02 213.959 902.909 214.273 903.682 213.943C904.44 213.598 904.769 212.75 904.423 212.012C904.061 211.29 903.172 210.976 902.399 211.305Z" fill="white"/>
<path opacity="0.36" d="M903.995 236.382C903.172 236.743 902.81 237.685 903.205 238.454C903.584 239.24 904.571 239.585 905.394 239.208C906.217 238.847 906.58 237.905 906.184 237.135C905.789 236.35 904.818 236.021 903.995 236.382Z" fill="white"/>
<path opacity="0.59" d="M863.795 276.014C862.462 276.611 861.869 278.134 862.495 279.406C863.121 280.678 864.717 281.243 866.051 280.647C867.384 280.05 867.977 278.527 867.351 277.255C866.725 275.967 865.129 275.418 863.795 276.014Z" fill="white"/>
<path opacity="0.55" d="M821.046 323.137C820.141 323.545 819.729 324.581 820.157 325.445C820.585 326.309 821.672 326.701 822.577 326.293C823.482 325.885 823.894 324.848 823.466 323.985C823.038 323.105 821.951 322.728 821.046 323.137Z" fill="white"/>
<path opacity="0.58" d="M859.631 239.004C858.281 239.601 857.689 241.14 858.314 242.427C858.94 243.715 860.553 244.28 861.903 243.683C863.253 243.087 863.845 241.548 863.22 240.26C862.594 238.957 860.981 238.392 859.631 239.004Z" fill="white"/>
<path opacity="0.67" d="M941.955 203.439C943.19 203.894 944.589 203.297 945.066 202.12C945.544 200.942 944.918 199.607 943.684 199.152C942.449 198.697 941.05 199.293 940.572 200.471C940.095 201.664 940.72 202.983 941.955 203.439Z" fill="white"/>
<path opacity="0.5" d="M965.61 177.672C965.001 177.938 964.738 178.629 965.018 179.21C965.298 179.791 966.022 180.042 966.631 179.776C967.24 179.509 967.504 178.818 967.224 178.237C966.944 177.656 966.22 177.405 965.61 177.672Z" fill="white"/>
<path opacity="0.6" d="M973.841 356.205C973.397 356.394 973.216 356.896 973.413 357.32C973.611 357.744 974.137 357.917 974.582 357.729C975.026 357.54 975.208 357.038 975.01 356.614C974.812 356.19 974.286 356.001 973.841 356.205Z" fill="white"/>
<path opacity="0.24" d="M158.696 367.181C158.087 367.448 157.824 368.139 158.104 368.72C158.384 369.301 159.108 369.552 159.717 369.285C160.326 369.018 160.59 368.327 160.31 367.746C160.03 367.165 159.306 366.914 158.696 367.181Z" fill="white"/>
<path opacity="0.39" d="M283.87 373.823C282.882 374.263 282.455 375.378 282.915 376.32C283.376 377.262 284.545 377.67 285.533 377.23C286.52 376.791 286.948 375.676 286.488 374.734C286.027 373.792 284.858 373.383 283.87 373.823Z" fill="white"/>
<path opacity="0.53" d="M1120.18 150.459C1118.62 149.91 1116.89 150.679 1116.33 152.171C1115.76 153.663 1116.56 155.311 1118.13 155.845C1119.69 156.395 1121.42 155.625 1121.98 154.134C1122.56 152.658 1121.75 151.009 1120.18 150.459Z" fill="white"/>
<path opacity="0.55" d="M1116.71 23.1143C1115.82 22.8003 1114.85 23.2399 1114.52 24.0879C1114.19 24.9358 1114.65 25.8622 1115.54 26.1763C1116.43 26.4903 1117.4 26.0506 1117.73 25.2027C1118.04 24.3548 1117.58 23.4127 1116.71 23.1143Z" fill="white"/>
<path opacity="0.65" d="M366.441 131.13C364.878 130.58 363.149 131.35 362.589 132.841C362.013 134.333 362.82 135.982 364.384 136.516C365.948 137.065 367.676 136.296 368.236 134.804C368.812 133.328 368.005 131.679 366.441 131.13Z" fill="white"/>
<path opacity="0.65" d="M292.644 471.365C291.08 470.816 289.352 471.585 288.792 473.077C288.216 474.568 289.023 476.217 290.586 476.751C292.15 477.301 293.879 476.531 294.439 475.04C295.015 473.548 294.208 471.899 292.644 471.365Z" fill="white"/>
<path opacity="0.42" d="M1135.36 170.15C1134.92 169.993 1134.42 170.213 1134.28 170.637C1134.11 171.061 1134.34 171.532 1134.79 171.673C1135.23 171.83 1135.72 171.61 1135.87 171.186C1136.04 170.763 1135.81 170.291 1135.36 170.15Z" fill="white"/>
<path opacity="0.25" d="M402.147 144.037C401.702 143.88 401.208 144.1 401.06 144.524C400.895 144.948 401.126 145.419 401.57 145.56C402.015 145.717 402.509 145.497 402.657 145.073C402.822 144.649 402.591 144.178 402.147 144.037Z" fill="white"/>
<path opacity="0.65" d="M406.032 112.036C405.423 111.44 404.419 111.424 403.793 112.005C403.168 112.586 403.151 113.544 403.76 114.14C404.369 114.737 405.373 114.753 405.999 114.172C406.624 113.591 406.641 112.633 406.032 112.036Z" fill="white"/>
<path opacity="0.51" d="M829.177 169.836C827.777 170.464 827.168 172.05 827.827 173.384C828.485 174.719 830.148 175.3 831.547 174.672C832.946 174.044 833.555 172.458 832.897 171.123C832.238 169.788 830.576 169.223 829.177 169.836Z" fill="white"/>
<path opacity="0.51" d="M934.942 421.84C933.609 421.102 931.897 421.542 931.123 422.814C930.349 424.086 930.81 425.719 932.143 426.457C933.477 427.195 935.189 426.755 935.963 425.483C936.736 424.212 936.292 422.578 934.942 421.84Z" fill="white"/>
<path opacity="0.23" d="M111.468 270.471C110.365 270.094 109.147 270.628 108.735 271.68C108.34 272.732 108.9 273.894 110.003 274.287C111.105 274.664 112.324 274.13 112.735 273.078C113.147 272.026 112.571 270.848 111.468 270.471Z" fill="white"/>
<path opacity="0.5" d="M151.223 221.496C150.251 221.936 149.823 223.035 150.284 223.961C150.745 224.888 151.898 225.296 152.869 224.856C153.84 224.417 154.268 223.318 153.807 222.391C153.346 221.465 152.194 221.056 151.223 221.496Z" fill="white"/>
<path opacity="0.38" d="M69.2769 293.789C68.6348 294.072 68.355 294.794 68.6513 295.406C68.9476 296.019 69.7049 296.286 70.3469 296.003C70.9889 295.72 71.2687 294.998 70.9724 294.386C70.6761 293.773 69.9189 293.506 69.2769 293.789Z" fill="white"/>
<path opacity="0.49" d="M31.8924 298.83C31.5798 298.971 31.4317 299.332 31.5798 299.646C31.7279 299.945 32.1064 300.086 32.4355 299.945C32.7481 299.803 32.8963 299.442 32.7482 299.128C32.5836 298.83 32.2051 298.688 31.8924 298.83Z" fill="white"/>
<path opacity="0.74" d="M1061.2 262.746C1060.53 263.044 1060.25 263.798 1060.56 264.442C1060.87 265.086 1061.66 265.353 1062.34 265.054C1063.01 264.756 1063.29 264.002 1062.98 263.358C1062.67 262.715 1061.88 262.448 1061.2 262.746Z" fill="white"/>
<path opacity="0.5" d="M993.118 222.328C992.739 222.501 992.575 222.925 992.756 223.286C992.937 223.647 993.381 223.804 993.76 223.631C994.138 223.459 994.303 223.035 994.122 222.674C993.941 222.312 993.496 222.155 993.118 222.328Z" fill="white"/>
<path opacity="0.55" d="M824.486 374.42C824.486 373.242 823.482 372.269 822.231 372.269C820.996 372.269 819.975 373.227 819.975 374.42C819.975 375.598 820.98 376.571 822.231 376.571C823.482 376.571 824.486 375.613 824.486 374.42Z" fill="white"/>
<path opacity="0.24" d="M873.557 357.195C873.557 355.876 872.438 354.824 871.071 354.824C869.689 354.824 868.586 355.892 868.586 357.195C868.586 358.498 869.705 359.566 871.071 359.566C872.438 359.566 873.557 358.498 873.557 357.195Z" fill="white"/>
<path opacity="0.35" d="M783.627 374.42C783.627 373.431 782.788 372.63 781.734 372.63C780.681 372.63 779.841 373.431 779.841 374.42C779.841 375.409 780.681 376.226 781.734 376.226C782.788 376.226 783.627 375.409 783.627 374.42Z" fill="white"/>
<path opacity="0.75" d="M902.464 371.091C902.464 370.463 901.937 369.961 901.278 369.961C900.62 369.961 900.093 370.463 900.093 371.091C900.093 371.719 900.62 372.222 901.278 372.222C901.937 372.222 902.464 371.719 902.464 371.091Z" fill="white"/>
<path opacity="0.33" d="M748.91 243.526C747.79 242.458 745.98 242.458 744.86 243.526C743.741 244.594 743.741 246.321 744.86 247.389C745.98 248.457 747.79 248.457 748.91 247.389C750.029 246.321 750.029 244.594 748.91 243.526Z" fill="white"/>
<path opacity="0.57" d="M506.2 402.433C507.691 402.433 508.9 401.28 508.9 399.858C508.9 398.436 507.691 397.283 506.2 397.283C504.709 397.283 503.501 398.436 503.501 399.858C503.501 401.28 504.709 402.433 506.2 402.433Z" fill="white"/>
<path opacity="0.5" d="M266.174 394.016C266.51 394.016 266.782 393.756 266.782 393.435C266.782 393.114 266.51 392.854 266.174 392.854C265.837 392.854 265.565 393.114 265.565 393.435C265.565 393.756 265.837 394.016 266.174 394.016Z" fill="white"/>
<path opacity="0.58" d="M948.952 307.858C948.952 307.152 948.359 306.586 947.619 306.586C946.878 306.586 946.285 307.152 946.285 307.858C946.285 308.565 946.878 309.13 947.619 309.13C948.343 309.13 948.952 308.565 948.952 307.858Z" fill="white"/>
<path opacity="0.7" d="M916.637 339.263C916.637 338.085 915.633 337.112 914.382 337.112C913.147 337.112 912.126 338.069 912.126 339.263C912.126 340.44 913.131 341.414 914.382 341.414C915.633 341.398 916.637 340.44 916.637 339.263Z" fill="white"/>
<path opacity="0.23" d="M900.488 303.352C900.488 302.174 899.484 301.201 898.233 301.201C896.982 301.201 895.978 302.158 895.978 303.352C895.978 304.529 896.982 305.503 898.233 305.503C899.484 305.503 900.488 304.529 900.488 303.352Z" fill="white"/>
<path opacity="0.62" d="M966.038 257.878C966.038 256.387 964.771 255.177 963.207 255.177C961.643 255.177 960.375 256.387 960.375 257.878C960.375 259.37 961.643 260.579 963.207 260.579C964.771 260.579 966.038 259.37 966.038 257.878Z" fill="white"/>
<path opacity="0.31" d="M994.468 271.775C994.468 271.225 994.007 270.785 993.431 270.785C992.854 270.785 992.393 271.225 992.393 271.775C992.393 272.324 992.854 272.764 993.431 272.764C994.007 272.764 994.468 272.324 994.468 271.775Z" fill="white"/>
<path opacity="0.65" d="M760.022 346.454C761.175 346.894 762.491 346.376 762.952 345.277C763.413 344.178 762.87 342.921 761.718 342.482C760.566 342.042 759.249 342.56 758.788 343.659C758.327 344.759 758.87 345.999 760.022 346.454Z" fill="white"/>
<path opacity="0.61" d="M763.907 307.858C764.543 307.858 765.059 307.366 765.059 306.759C765.059 306.152 764.543 305.66 763.907 305.66C763.27 305.66 762.754 306.152 762.754 306.759C762.754 307.366 763.27 307.858 763.907 307.858Z" fill="white"/>
<path opacity="0.61" d="M645.893 408.321C646.53 408.321 647.046 407.829 647.046 407.222C647.046 406.615 646.53 406.123 645.893 406.123C645.257 406.123 644.741 406.615 644.741 407.222C644.741 407.829 645.257 408.321 645.893 408.321Z" fill="white"/>
<path opacity="0.71" d="M812.831 350.804C812.074 350.082 810.839 350.082 810.082 350.804C809.325 351.526 809.325 352.704 810.082 353.426C810.839 354.148 812.074 354.148 812.831 353.426C813.588 352.704 813.588 351.526 812.831 350.804Z" fill="white"/>
<path opacity="0.39" d="M758.343 397.235C757.717 396.639 756.696 396.639 756.071 397.235C755.445 397.832 755.445 398.806 756.071 399.402C756.696 399.999 757.717 399.999 758.343 399.402C758.968 398.806 758.968 397.832 758.343 397.235Z" fill="white"/>
<path opacity="0.29" d="M802.986 295.265C803.804 295.265 804.468 294.632 804.468 293.852C804.468 293.071 803.804 292.439 802.986 292.439C802.168 292.439 801.505 293.071 801.505 293.852C801.505 294.632 802.168 295.265 802.986 295.265Z" fill="white"/>
<path opacity="0.39" d="M812.452 284.101C811.497 283.19 809.966 283.19 809.011 284.101C808.056 285.011 808.056 286.472 809.011 287.382C809.966 288.293 811.497 288.293 812.452 287.382C813.407 286.472 813.407 284.996 812.452 284.101Z" fill="white"/>
<path opacity="0.32" d="M749.898 282.122C749.223 281.478 748.12 281.478 747.445 282.122C746.77 282.766 746.77 283.818 747.445 284.462C748.12 285.106 749.223 285.106 749.898 284.462C750.589 283.818 750.589 282.782 749.898 282.122Z" fill="white"/>
<path opacity="0.79" d="M712.399 421.652C713.726 421.652 714.802 420.626 714.802 419.36C714.802 418.094 713.726 417.067 712.399 417.067C711.071 417.067 709.995 418.094 709.995 419.36C709.995 420.626 711.071 421.652 712.399 421.652Z" fill="white"/>
<path opacity="0.39" d="M1054.55 366.82C1053.73 366.537 1052.82 366.93 1052.53 367.715C1052.23 368.5 1052.64 369.364 1053.47 369.646C1054.29 369.929 1055.19 369.537 1055.49 368.751C1055.79 367.966 1055.38 367.103 1054.55 366.82Z" fill="white"/>
<path opacity="0.54" d="M1146.79 361.371C1145.62 360.963 1144.33 361.544 1143.91 362.659C1143.48 363.774 1144.09 364.999 1145.26 365.407C1146.42 365.815 1147.71 365.234 1148.14 364.119C1148.56 363.004 1147.96 361.78 1146.79 361.371Z" fill="white"/>
<path opacity="0.8" d="M1108.89 365.894C1107.58 365.438 1106.13 366.082 1105.65 367.323C1105.17 368.563 1105.85 369.961 1107.15 370.416C1108.46 370.871 1109.91 370.227 1110.39 368.987C1110.88 367.731 1110.21 366.349 1108.89 365.894Z" fill="white"/>
<path opacity="0.79" d="M1002.4 330.956C1001.3 330.579 1000.08 331.113 999.669 332.165C999.274 333.217 999.834 334.379 1000.94 334.772C1002.04 335.149 1003.26 334.615 1003.67 333.563C1004.08 332.511 1003.51 331.333 1002.4 330.956Z" fill="white"/>
<path opacity="0.59" d="M1018.73 271.256C1017.23 270.738 1015.57 271.476 1015.03 272.905C1014.49 274.334 1015.26 275.92 1016.76 276.438C1018.26 276.956 1019.92 276.218 1020.46 274.789C1021 273.36 1020.23 271.79 1018.73 271.256Z" fill="white"/>
<path opacity="0.39" d="M988.607 249.462C987.356 249.022 985.99 249.634 985.529 250.828C985.068 252.021 985.71 253.324 986.961 253.764C988.212 254.204 989.578 253.591 990.039 252.398C990.484 251.22 989.842 249.901 988.607 249.462Z" fill="white"/>
<path opacity="0.5" d="M675.442 202.67C675.063 202.842 674.899 203.266 675.08 203.627C675.261 203.989 675.705 204.146 676.083 203.973C676.462 203.8 676.626 203.376 676.445 203.015C676.264 202.654 675.837 202.497 675.442 202.67Z" fill="white"/>
<path opacity="0.39" d="M633.926 274.664C635.071 274.664 636 273.778 636 272.685C636 271.592 635.071 270.707 633.926 270.707C632.78 270.707 631.852 271.592 631.852 272.685C631.852 273.778 632.78 274.664 633.926 274.664Z" fill="white"/>
<path opacity="0.38" d="M635.835 331.804C635.835 330.359 634.617 329.198 633.102 329.198C631.588 329.198 630.37 330.359 630.37 331.804C630.37 333.249 631.588 334.411 633.102 334.411C634.617 334.411 635.835 333.249 635.835 331.804Z" fill="white"/>
<path opacity="0.31" d="M675.771 253.12C676.344 253.12 676.808 252.677 676.808 252.131C676.808 251.585 676.344 251.142 675.771 251.142C675.198 251.142 674.734 251.585 674.734 252.131C674.734 252.677 675.198 253.12 675.771 253.12Z" fill="white"/>
<path opacity="0.44" d="M690.718 317.123C689.434 316.683 688.035 317.311 687.558 318.52C687.097 319.745 687.755 321.08 689.023 321.535C690.307 321.975 691.706 321.347 692.183 320.137C692.661 318.913 692.002 317.562 690.718 317.123Z" fill="white"/>
<path opacity="0.39" d="M660.857 405.071C659.606 404.631 658.24 405.244 657.779 406.437C657.318 407.63 657.96 408.934 659.211 409.373C660.462 409.813 661.828 409.2 662.289 408.007C662.75 406.814 662.108 405.51 660.857 405.071Z" fill="white"/>
<path opacity="0.69" d="M1076.25 298.327C1074.73 297.793 1073.05 298.547 1072.51 299.991C1071.95 301.436 1072.74 303.038 1074.26 303.556C1075.77 304.09 1077.45 303.336 1077.99 301.891C1078.55 300.447 1077.76 298.861 1076.25 298.327Z" fill="white"/>
<path opacity="0.61" d="M995.01 194.692C994.566 194.535 994.072 194.755 993.924 195.179C993.776 195.603 993.99 196.074 994.434 196.215C994.879 196.372 995.372 196.153 995.521 195.729C995.685 195.32 995.455 194.849 995.01 194.692Z" fill="white"/>
<path opacity="0.49" d="M930.597 378.99C930.004 379.257 929.74 379.932 930.02 380.497C930.3 381.062 931.008 381.313 931.601 381.046C932.193 380.78 932.457 380.104 932.177 379.539C931.897 378.974 931.189 378.723 930.597 378.99Z" fill="white"/>
<path d="M712.316 406.782C723.589 406.782 732.728 398.065 732.728 387.312C732.728 376.558 723.589 367.841 712.316 367.841C701.043 367.841 691.904 376.558 691.904 387.312C691.904 398.065 701.043 406.782 712.316 406.782Z" fill="url(#paint7_radial_1_7044)"/>
<path d="M823.744 109.539C835.017 109.539 844.156 100.822 844.156 90.0683C844.156 79.3149 835.017 70.5975 823.744 70.5975C812.47 70.5975 803.331 79.3149 803.331 90.0683C803.331 100.822 812.47 109.539 823.744 109.539Z" fill="url(#paint8_radial_1_7044)"/>
<path d="M276.15 363.224C287.423 363.224 296.562 354.507 296.562 343.754C296.562 333 287.423 324.283 276.15 324.283C264.876 324.283 255.737 333 255.737 343.754C255.737 354.507 264.876 363.224 276.15 363.224Z" fill="url(#paint9_radial_1_7044)"/>
<path d="M975.454 230.949C986.728 230.949 995.867 222.232 995.867 211.478C995.867 200.725 986.728 192.008 975.454 192.008C964.181 192.008 955.042 200.725 955.042 211.478C955.042 222.232 964.181 230.949 975.454 230.949Z" fill="url(#paint10_radial_1_7044)"/>
<path d="M1096.5 445.331C1118.74 445.331 1136.78 428.128 1136.78 406.908C1136.78 385.687 1118.74 368.485 1096.5 368.485C1074.25 368.485 1056.21 385.687 1056.21 406.908C1056.21 428.128 1074.25 445.331 1096.5 445.331Z" fill="url(#paint11_radial_1_7044)"/>
<path d="M312.431 152.642C334.678 152.642 352.713 135.439 352.713 114.218C352.713 92.9979 334.678 75.7952 312.431 75.7952C290.184 75.7952 272.15 92.9979 272.15 114.218C272.15 135.439 290.184 152.642 312.431 152.642Z" fill="url(#paint12_radial_1_7044)"/>
<path d="M33.6043 356.959C46.2596 356.959 56.5188 347.173 56.5188 335.102C56.5188 323.03 46.2596 313.244 33.6043 313.244C20.9489 313.244 10.6898 323.03 10.6898 335.102C10.6898 347.173 20.9489 356.959 33.6043 356.959Z" fill="url(#paint13_radial_1_7044)"/>
<path d="M42.6912 174.923C64.9381 174.923 82.9727 157.721 82.9727 136.5C82.9727 115.279 64.9381 98.0767 42.6912 98.0767C20.4444 98.0767 2.40973 115.279 2.40973 136.5C2.40973 157.721 20.4444 174.923 42.6912 174.923Z" fill="url(#paint14_radial_1_7044)"/>
<path d="M1033 78.7159C1055.25 78.7159 1073.29 61.5132 1073.29 40.2926C1073.29 19.072 1055.25 1.86926 1033 1.86926C1010.76 1.86926 992.722 19.072 992.722 40.2926C992.722 61.5132 1010.76 78.7159 1033 78.7159Z" fill="url(#paint15_radial_1_7044)"/>
<rect y="0.916504" width="1206" height="157.031" fill="url(#paint16_linear_1_7044)"/>
<rect x="1206" y="589.469" width="1206" height="157.031" transform="rotate(180 1206 589.469)" fill="url(#paint17_linear_1_7044)"/>
</g>
<defs>
<linearGradient id="paint0_linear_1_7044" x1="602.838" y1="566.157" x2="602.838" y2="41.029" gradientUnits="userSpaceOnUse">
<stop stop-color="#FFDF5A" stop-opacity="0.15"/>
<stop offset="0.1953" stop-color="#FFCE67" stop-opacity="0.65"/>
<stop offset="0.5804" stop-color="#FFA387" stop-opacity="0.62"/>
<stop offset="1" stop-color="#FF6DB0" stop-opacity="0.17"/>
</linearGradient>
<radialGradient id="paint1_radial_1_7044" cx="0" cy="0" r="1" gradientUnits="userSpaceOnUse" gradientTransform="translate(1000.06 100.401) rotate(-19.1152) scale(735.35 528.179)">
<stop stop-color="#F775AC"/>
<stop offset="0.0757" stop-color="#DF60A6"/>
<stop offset="0.2138" stop-color="#B73D9B"/>
<stop offset="0.2237" stop-color="#B1399A"/>
<stop offset="0.2585" stop-color="#A22D96"/>
<stop offset="0.2997" stop-color="#9A2694"/>
<stop offset="0.363" stop-color="#972493"/>
<stop offset="0.4178" stop-color="#8E2384"/>
<stop offset="0.4944" stop-color="#852174"/>
<stop offset="0.5562" stop-color="#82216F"/>
<stop offset="0.5834" stop-color="#77216C"/>
<stop offset="0.6779" stop-color="#561F63"/>
<stop offset="0.7298" stop-color="#4A1F60"/>
<stop offset="0.7677" stop-color="#5C1666"/>
<stop offset="0.8454" stop-color="#7D0672"/>
<stop offset="0.8882" stop-color="#890076"/>
</radialGradient>
<radialGradient id="paint2_radial_1_7044" cx="0" cy="0" r="1" gradientUnits="userSpaceOnUse" gradientTransform="translate(128.224 267.599) rotate(-153.359) scale(277.247 187.529)">
<stop stop-color="#F7A716"/>
<stop offset="0.2847" stop-color="#FBCE39" stop-opacity="0.5677"/>
<stop offset="0.5174" stop-color="#FEE750" stop-opacity="0.2145"/>
<stop offset="0.6587" stop-color="#FFF058" stop-opacity="0"/>
</radialGradient>
<radialGradient id="paint3_radial_1_7044" cx="0" cy="0" r="1" gradientUnits="userSpaceOnUse" gradientTransform="translate(535.1 222.654) scale(185.42 176.867)">
<stop offset="0.724" stop-color="#8A329D"/>
<stop offset="0.7266" stop-color="#8C359A" stop-opacity="0.9906"/>
<stop offset="0.7592" stop-color="#A4567C" stop-opacity="0.8723"/>
<stop offset="0.7944" stop-color="#B77164" stop-opacity="0.7449"/>
<stop offset="0.8324" stop-color="#C68751" stop-opacity="0.6073"/>
<stop offset="0.8745" stop-color="#D19643" stop-opacity="0.4546"/>
<stop offset="0.9242" stop-color="#D79E3B" stop-opacity="0.2746"/>
<stop offset="1" stop-color="#D9A139" stop-opacity="0"/>
</radialGradient>
<radialGradient id="paint4_radial_1_7044" cx="0" cy="0" r="1" gradientUnits="userSpaceOnUse" gradientTransform="translate(539.971 91.7745) scale(478.802 254.106)">
<stop stop-color="#FFD17A"/>
<stop offset="0.266" stop-color="#FF8063"/>
<stop offset="0.538" stop-color="#FF4078"/>
<stop offset="0.5679" stop-color="#FF397A"/>
<stop offset="0.6276" stop-color="#F83880"/>
<stop offset="0.7158" stop-color="#E43590"/>
<stop offset="0.7893" stop-color="#CE32A2"/>
<stop offset="0.7901" stop-color="#CE32A2"/>
<stop offset="0.9255" stop-color="#B5119E"/>
<stop offset="1" stop-color="#AB059D"/>
</radialGradient>
<radialGradient id="paint5_radial_1_7044" cx="0" cy="0" r="1" gradientUnits="userSpaceOnUse" gradientTransform="translate(535.1 139.545) scale(254.786 126.182)">
<stop stop-color="white" stop-opacity="0.5"/>
<stop offset="0.1413" stop-color="#C8C8C8" stop-opacity="0.4293"/>
<stop offset="0.3149" stop-color="#8C8C8C" stop-opacity="0.3425"/>
<stop offset="0.4822" stop-color="#5A5A5A" stop-opacity="0.2589"/>
<stop offset="0.6386" stop-color="#333333" stop-opacity="0.1807"/>
<stop offset="0.7816" stop-color="#171717" stop-opacity="0.1092"/>
<stop offset="0.9067" stop-color="#060606" stop-opacity="0.0467"/>
<stop offset="1" stop-opacity="0"/>
</radialGradient>
<radialGradient id="paint6_radial_1_7044" cx="0" cy="0" r="1" gradientUnits="userSpaceOnUse" gradientTransform="translate(204.481 40.5842) rotate(-163.251) scale(149.348 95.6727)">
<stop stop-color="#F775AC"/>
<stop offset="0.0757" stop-color="#DF60A6"/>
<stop offset="0.2138" stop-color="#B73D9B"/>
<stop offset="0.2237" stop-color="#B1399A"/>
<stop offset="0.2585" stop-color="#A22D96"/>
<stop offset="0.2997" stop-color="#9A2694"/>
<stop offset="0.363" stop-color="#972493"/>
<stop offset="0.4178" stop-color="#8E2384"/>
<stop offset="0.4944" stop-color="#852174"/>
<stop offset="0.5562" stop-color="#82216F"/>
<stop offset="0.5834" stop-color="#77216C"/>
<stop offset="0.6779" stop-color="#561F63"/>
<stop offset="0.7298" stop-color="#4A1F60"/>
<stop offset="0.7677" stop-color="#5C1666"/>
<stop offset="0.8454" stop-color="#7D0672"/>
<stop offset="0.8882" stop-color="#890076"/>
</radialGradient>
<radialGradient id="paint7_radial_1_7044" cx="0" cy="0" r="1" gradientUnits="userSpaceOnUse" gradientTransform="translate(712.314 387.307) rotate(180) scale(20.4065 19.4652)">
<stop stop-color="white"/>
<stop offset="0.0691" stop-color="#D6D6D6" stop-opacity="0.9309"/>
<stop offset="0.1631" stop-color="#A4A4A4" stop-opacity="0.8369"/>
<stop offset="0.2621" stop-color="#787878" stop-opacity="0.7379"/>
<stop offset="0.3642" stop-color="#535353" stop-opacity="0.6358"/>
<stop offset="0.4702" stop-color="#353535" stop-opacity="0.5298"/>
<stop offset="0.5814" stop-color="#1D1D1D" stop-opacity="0.4186"/>
<stop offset="0.7" stop-color="#0D0D0D" stop-opacity="0.3"/>
<stop offset="0.8312" stop-color="#030303" stop-opacity="0.1688"/>
<stop offset="1" stop-opacity="0"/>
</radialGradient>
<radialGradient id="paint8_radial_1_7044" cx="0" cy="0" r="1" gradientUnits="userSpaceOnUse" gradientTransform="translate(823.748 90.0612) rotate(180) scale(20.4065 19.4651)">
<stop stop-color="white"/>
<stop offset="0.0691" stop-color="#D6D6D6" stop-opacity="0.9309"/>
<stop offset="0.1631" stop-color="#A4A4A4" stop-opacity="0.8369"/>
<stop offset="0.2621" stop-color="#787878" stop-opacity="0.7379"/>
<stop offset="0.3642" stop-color="#535353" stop-opacity="0.6358"/>
<stop offset="0.4702" stop-color="#353535" stop-opacity="0.5298"/>
<stop offset="0.5814" stop-color="#1D1D1D" stop-opacity="0.4186"/>
<stop offset="0.7" stop-color="#0D0D0D" stop-opacity="0.3"/>
<stop offset="0.8312" stop-color="#030303" stop-opacity="0.1688"/>
<stop offset="1" stop-opacity="0"/>
</radialGradient>
<radialGradient id="paint9_radial_1_7044" cx="0" cy="0" r="1" gradientUnits="userSpaceOnUse" gradientTransform="translate(276.156 343.761) rotate(180) scale(20.4064 19.4651)">
<stop stop-color="white"/>
<stop offset="0.0691" stop-color="#D6D6D6" stop-opacity="0.9309"/>
<stop offset="0.1631" stop-color="#A4A4A4" stop-opacity="0.8369"/>
<stop offset="0.2621" stop-color="#787878" stop-opacity="0.7379"/>
<stop offset="0.3642" stop-color="#535353" stop-opacity="0.6358"/>
<stop offset="0.4702" stop-color="#353535" stop-opacity="0.5298"/>
<stop offset="0.5814" stop-color="#1D1D1D" stop-opacity="0.4186"/>
<stop offset="0.7" stop-color="#0D0D0D" stop-opacity="0.3"/>
<stop offset="0.8312" stop-color="#030303" stop-opacity="0.1688"/>
<stop offset="1" stop-opacity="0"/>
</radialGradient>
<radialGradient id="paint10_radial_1_7044" cx="0" cy="0" r="1" gradientUnits="userSpaceOnUse" gradientTransform="translate(975.451 211.475) rotate(180) scale(20.4067 19.4653)">
<stop stop-color="white"/>
<stop offset="0.0691" stop-color="#F5F5F5" stop-opacity="0.9309"/>
<stop offset="0.1631" stop-color="#D5D5D5" stop-opacity="0.8369"/>
<stop offset="0.2621" stop-color="#81719D" stop-opacity="0.55"/>
<stop offset="0.34375" stop-color="#5C5962" stop-opacity="0.5"/>
<stop offset="0.3642" stop-color="#535353" stop-opacity="0.6358"/>
<stop offset="0.484993" stop-color="#251A38" stop-opacity="0.4"/>
<stop offset="0.5814" stop-color="#251A38" stop-opacity="0.4"/>
<stop offset="0.7" stop-color="#251A38" stop-opacity="0.3"/>
<stop offset="0.8312" stop-color="#251A38" stop-opacity="0.15"/>
<stop offset="1" stop-color="#251A38" stop-opacity="0"/>
</radialGradient>
<radialGradient id="paint11_radial_1_7044" cx="0" cy="0" r="1" gradientUnits="userSpaceOnUse" gradientTransform="translate(1096.49 406.913) rotate(180) scale(40.2875 38.4289)">
<stop stop-color="white"/>
<stop offset="0.0691" stop-color="#D6D6D6" stop-opacity="0.9309"/>
<stop offset="0.1631" stop-color="#A4A4A4" stop-opacity="0.8369"/>
<stop offset="0.2621" stop-color="#787878" stop-opacity="0.7379"/>
<stop offset="0.3642" stop-color="#535353" stop-opacity="0.6358"/>
<stop offset="0.4702" stop-color="#353535" stop-opacity="0.5298"/>
<stop offset="0.5814" stop-color="#1D1D1D" stop-opacity="0.4186"/>
<stop offset="0.7" stop-color="#0D0D0D" stop-opacity="0.3"/>
<stop offset="0.8312" stop-color="#030303" stop-opacity="0.1688"/>
<stop offset="1" stop-opacity="0"/>
</radialGradient>
<radialGradient id="paint12_radial_1_7044" cx="0" cy="0" r="1" gradientUnits="userSpaceOnUse" gradientTransform="translate(312.427 114.22) rotate(180) scale(40.2874 38.4289)">
<stop stop-color="white"/>
<stop offset="0.0691" stop-color="#D6D6D6" stop-opacity="0.9309"/>
<stop offset="0.1631" stop-color="#A4A4A4" stop-opacity="0.8369"/>
<stop offset="0.2621" stop-color="#787878" stop-opacity="0.7379"/>
<stop offset="0.3642" stop-color="#535353" stop-opacity="0.6358"/>
<stop offset="0.4702" stop-color="#353535" stop-opacity="0.5298"/>
<stop offset="0.5814" stop-color="#1D1D1D" stop-opacity="0.4186"/>
<stop offset="0.7" stop-color="#0D0D0D" stop-opacity="0.3"/>
<stop offset="0.8312" stop-color="#030303" stop-opacity="0.1688"/>
<stop offset="1" stop-opacity="0"/>
</radialGradient>
<radialGradient id="paint13_radial_1_7044" cx="0" cy="0" r="1" gradientUnits="userSpaceOnUse" gradientTransform="translate(33.6053 335.107) rotate(180) scale(22.9126 21.8556)">
<stop stop-color="white"/>
<stop offset="0.0691" stop-color="#D6D6D6" stop-opacity="0.9309"/>
<stop offset="0.1631" stop-color="#A4A4A4" stop-opacity="0.8369"/>
<stop offset="0.2621" stop-color="#787878" stop-opacity="0.7379"/>
<stop offset="0.3642" stop-color="#535353" stop-opacity="0.6358"/>
<stop offset="0.4702" stop-color="#353535" stop-opacity="0.5298"/>
<stop offset="0.5814" stop-color="#1D1D1D" stop-opacity="0.4186"/>
<stop offset="0.7" stop-color="#0D0D0D" stop-opacity="0.3"/>
<stop offset="0.8312" stop-color="#030303" stop-opacity="0.1688"/>
<stop offset="1" stop-opacity="0"/>
</radialGradient>
<radialGradient id="paint14_radial_1_7044" cx="0" cy="0" r="1" gradientUnits="userSpaceOnUse" gradientTransform="translate(42.6958 136.502) rotate(180) scale(40.2872 38.4288)">
<stop stop-color="white"/>
<stop offset="0.0691" stop-color="#D6D6D6" stop-opacity="0.9309"/>
<stop offset="0.1631" stop-color="#A4A4A4" stop-opacity="0.8369"/>
<stop offset="0.2621" stop-color="#787878" stop-opacity="0.7379"/>
<stop offset="0.3642" stop-color="#535353" stop-opacity="0.6358"/>
<stop offset="0.4702" stop-color="#353535" stop-opacity="0.5298"/>
<stop offset="0.5814" stop-color="#1D1D1D" stop-opacity="0.4186"/>
<stop offset="0.7" stop-color="#0D0D0D" stop-opacity="0.3"/>
<stop offset="0.8312" stop-color="#030303" stop-opacity="0.1688"/>
<stop offset="1" stop-opacity="0"/>
</radialGradient>
<radialGradient id="paint15_radial_1_7044" cx="0" cy="0" r="1" gradientUnits="userSpaceOnUse" gradientTransform="translate(1033.01 40.2927) rotate(180) scale(40.2875 38.429)">
<stop stop-color="white"/>
<stop offset="0.0691" stop-color="#D6D6D6" stop-opacity="0.9309"/>
<stop offset="0.1631" stop-color="#A4A4A4" stop-opacity="0.8369"/>
<stop offset="0.2621" stop-color="#787878" stop-opacity="0.7379"/>
<stop offset="0.3642" stop-color="#535353" stop-opacity="0.6358"/>
<stop offset="0.4702" stop-color="#353535" stop-opacity="0.5298"/>
<stop offset="0.5814" stop-color="#1D1D1D" stop-opacity="0.4186"/>
<stop offset="0.7" stop-color="#0D0D0D" stop-opacity="0.3"/>
<stop offset="0.8312" stop-color="#030303" stop-opacity="0.1688"/>
<stop offset="1" stop-opacity="0"/>
</radialGradient>
<linearGradient id="paint16_linear_1_7044" x1="603" y1="0.916504" x2="603" y2="157.948" gradientUnits="userSpaceOnUse">
<stop stop-color="#14152D"/>
<stop offset="1" stop-color="#14152D" stop-opacity="0"/>
</linearGradient>
<linearGradient id="paint17_linear_1_7044" x1="1809" y1="589.469" x2="1809" y2="746.5" gradientUnits="userSpaceOnUse">
<stop stop-color="#14152D"/>
<stop offset="1" stop-color="#14152D" stop-opacity="0"/>
</linearGradient>
<clipPath id="clip0_1_7044">
<rect width="1206" height="588.553" fill="white" transform="translate(0 0.916504)"/>
</clipPath>
</defs>
</svg>
